<mxfile host="www.draw.io" modified="2019-10-30T13:08:53.168Z" agent="Mozilla/5.0 (Macintosh; Intel Mac OS X 10_13_5) AppleWebKit/537.36 (KHTML, like Gecko) Chrome/77.0.3865.120 Safari/537.36" etag="zZ9bg-7CmF6X9zvTj4Ih" version="12.1.8" type="github" pages="5">
  <diagram name="Seller" id="Seller">
    <mxGraphModel dx="772" dy="510" grid="1" gridSize="10" guides="1" tooltips="1" connect="1" arrows="1" fold="1" page="1" pageScale="1" pageWidth="850" pageHeight="1100" math="0" shadow="0">
      <root>
        <mxCell id="0"/>
        <mxCell id="1" parent="0"/>
        <mxCell id="19" style="vsdxID=113;edgeStyle=none;startArrow=none;endArrow=block;startSize=5;endSize=5;strokeColor=#5b9bd5;spacingTop=0;spacingBottom=0;spacingLeft=0;spacingRight=0;verticalAlign=middle;html=1;labelBackgroundColor=#ffffff;rounded=0;exitX=0.5;exitY=1;exitDx=0;exitDy=0;exitPerimeter=0;entryX=0.5;entryY=0;entryDx=0;entryDy=0;entryPerimeter=0;" parent="1" source="18" target="7" edge="1">
          <mxGeometry relative="1" as="geometry">
            <mxPoint x="10" as="offset"/>
            <Array as="points"/>
          </mxGeometry>
        </mxCell>
        <mxCell id="20" value="&lt;font style=&quot;font-size:11px;font-family:Calibri;color:#44749f;direction:ltr;letter-spacing:0px;line-height:120%;opacity:1&quot;&gt;YES&lt;br/&gt;&lt;/font&gt;" style="vsdxID=112;edgeStyle=none;startArrow=none;endArrow=block;startSize=5;endSize=5;strokeColor=#5b9bd5;spacingTop=0;spacingBottom=0;spacingLeft=0;spacingRight=0;verticalAlign=middle;html=1;labelBackgroundColor=#ffffff;rounded=0;align=center;exitX=0.5;exitY=1;exitDx=0;exitDy=0;exitPerimeter=0;entryX=0.5;entryY=0;entryDx=0;entryDy=0;entryPerimeter=0;" parent="1" source="3" target="18" edge="1">
          <mxGeometry relative="1" as="geometry">
            <mxPoint x="10" as="offset"/>
            <Array as="points"/>
          </mxGeometry>
        </mxCell>
        <mxCell id="21" value="&lt;font style=&quot;font-size:11px;font-family:Calibri;color:#44749f;direction:ltr;letter-spacing:0px;line-height:120%;opacity:1&quot;&gt;NO&lt;br/&gt;&lt;/font&gt;" style="vsdxID=110;edgeStyle=none;startArrow=none;endArrow=block;startSize=5;endSize=5;strokeColor=#5b9bd5;spacingTop=0;spacingBottom=0;spacingLeft=0;spacingRight=0;verticalAlign=middle;html=1;labelBackgroundColor=#ffffff;rounded=0;align=center;exitX=1;exitY=0.5;exitDx=0;exitDy=0;exitPerimeter=0;entryX=0.5;entryY=0;entryDx=0;entryDy=0;entryPerimeter=0;" parent="1" source="3" target="9" edge="1">
          <mxGeometry relative="1" as="geometry">
            <mxPoint as="offset"/>
            <Array as="points">
              <mxPoint x="234" y="250"/>
              <mxPoint x="234" y="110"/>
              <mxPoint x="314" y="110"/>
            </Array>
          </mxGeometry>
        </mxCell>
        <mxCell id="22" style="vsdxID=108;edgeStyle=none;startArrow=none;endArrow=block;startSize=5;endSize=5;strokeColor=#5b9bd5;spacingTop=0;spacingBottom=0;spacingLeft=0;spacingRight=0;verticalAlign=middle;html=1;labelBackgroundColor=#ffffff;rounded=0;exitX=0;exitY=0.5;exitDx=0;exitDy=0;exitPerimeter=0;entryX=1;entryY=0.5;entryDx=0;entryDy=0;entryPerimeter=0;" parent="1" source="17" target="7" edge="1">
          <mxGeometry relative="1" as="geometry">
            <mxPoint as="offset"/>
            <Array as="points"/>
          </mxGeometry>
        </mxCell>
        <mxCell id="23" style="vsdxID=107;edgeStyle=none;startArrow=none;endArrow=block;startSize=5;endSize=5;strokeColor=#5b9bd5;spacingTop=0;spacingBottom=0;spacingLeft=0;spacingRight=0;verticalAlign=middle;html=1;labelBackgroundColor=#ffffff;rounded=0;exitX=0.5;exitY=1;exitDx=0;exitDy=0;exitPerimeter=0;entryX=0.5;entryY=0;entryDx=0;entryDy=0;entryPerimeter=0;" parent="1" source="9" target="6" edge="1">
          <mxGeometry relative="1" as="geometry">
            <mxPoint x="10" as="offset"/>
            <Array as="points"/>
          </mxGeometry>
        </mxCell>
        <mxCell id="24" style="vsdxID=106;edgeStyle=none;startArrow=none;endArrow=block;startSize=5;endSize=5;strokeColor=#5b9bd5;spacingTop=0;spacingBottom=0;spacingLeft=0;spacingRight=0;verticalAlign=middle;html=1;labelBackgroundColor=#ffffff;rounded=0;exitX=0.5;exitY=1;exitDx=0;exitDy=0;exitPerimeter=0;entryX=0.5;entryY=0;entryDx=0;entryDy=0;entryPerimeter=0;" parent="1" source="16" target="17" edge="1">
          <mxGeometry relative="1" as="geometry">
            <mxPoint x="10" as="offset"/>
            <Array as="points"/>
          </mxGeometry>
        </mxCell>
        <mxCell id="25" style="vsdxID=105;edgeStyle=none;startArrow=none;endArrow=block;startSize=5;endSize=5;strokeColor=#5b9bd5;spacingTop=0;spacingBottom=0;spacingLeft=0;spacingRight=0;verticalAlign=middle;html=1;labelBackgroundColor=#ffffff;rounded=0;exitX=0.5;exitY=1;exitDx=0;exitDy=0;exitPerimeter=0;entryX=0.5;entryY=0;entryDx=0;entryDy=0;entryPerimeter=0;" parent="1" source="15" target="16" edge="1">
          <mxGeometry relative="1" as="geometry">
            <mxPoint x="10" as="offset"/>
            <Array as="points"/>
          </mxGeometry>
        </mxCell>
        <mxCell id="26" style="vsdxID=104;edgeStyle=none;startArrow=none;endArrow=block;startSize=5;endSize=5;strokeColor=#5b9bd5;spacingTop=0;spacingBottom=0;spacingLeft=0;spacingRight=0;verticalAlign=middle;html=1;labelBackgroundColor=#ffffff;rounded=0;exitX=0.5;exitY=1;exitDx=0;exitDy=0;exitPerimeter=0;entryX=0.5;entryY=0;entryDx=0;entryDy=0;entryPerimeter=0;" parent="1" source="14" target="15" edge="1">
          <mxGeometry relative="1" as="geometry">
            <mxPoint x="10" as="offset"/>
            <Array as="points"/>
          </mxGeometry>
        </mxCell>
        <mxCell id="27" style="vsdxID=103;edgeStyle=none;startArrow=none;endArrow=block;startSize=5;endSize=5;strokeColor=#5b9bd5;spacingTop=0;spacingBottom=0;spacingLeft=0;spacingRight=0;verticalAlign=middle;html=1;labelBackgroundColor=#ffffff;rounded=0;exitX=0.5;exitY=1;exitDx=0;exitDy=0;exitPerimeter=0;entryX=0.5;entryY=0;entryDx=0;entryDy=0;entryPerimeter=0;" parent="1" source="13" target="14" edge="1">
          <mxGeometry relative="1" as="geometry">
            <mxPoint x="10" as="offset"/>
            <Array as="points"/>
          </mxGeometry>
        </mxCell>
        <mxCell id="28" style="vsdxID=102;edgeStyle=none;startArrow=none;endArrow=block;startSize=5;endSize=5;strokeColor=#5b9bd5;spacingTop=0;spacingBottom=0;spacingLeft=0;spacingRight=0;verticalAlign=middle;html=1;labelBackgroundColor=#ffffff;rounded=0;exitX=0.5;exitY=1;exitDx=0;exitDy=0;exitPerimeter=0;entryX=0.5;entryY=0;entryDx=0;entryDy=0;entryPerimeter=0;" parent="1" source="12" target="13" edge="1">
          <mxGeometry relative="1" as="geometry">
            <mxPoint x="10" as="offset"/>
            <Array as="points"/>
          </mxGeometry>
        </mxCell>
        <mxCell id="29" style="vsdxID=9;edgeStyle=none;startArrow=none;endArrow=block;startSize=5;endSize=5;strokeColor=#5b9bd5;spacingTop=0;spacingBottom=0;spacingLeft=0;spacingRight=0;verticalAlign=middle;html=1;labelBackgroundColor=#ffffff;rounded=0;exitX=0.5;exitY=1;exitDx=0;exitDy=0;exitPerimeter=0;entryX=0.5;entryY=0;entryDx=0;entryDy=0;entryPerimeter=0;" parent="1" source="5" target="3" edge="1">
          <mxGeometry relative="1" as="geometry">
            <mxPoint x="10" as="offset"/>
            <Array as="points"/>
          </mxGeometry>
        </mxCell>
        <mxCell id="30" style="vsdxID=11;edgeStyle=none;startArrow=none;endArrow=block;startSize=5;endSize=5;strokeColor=#5b9bd5;spacingTop=0;spacingBottom=0;spacingLeft=0;spacingRight=0;verticalAlign=middle;html=1;labelBackgroundColor=#ffffff;rounded=0;exitX=0.5;exitY=1;exitDx=0;exitDy=0;exitPerimeter=0;entryX=0.5;entryY=0;entryDx=0;entryDy=0;entryPerimeter=0;" parent="1" source="6" target="8" edge="1">
          <mxGeometry relative="1" as="geometry">
            <mxPoint x="10" as="offset"/>
            <Array as="points"/>
          </mxGeometry>
        </mxCell>
        <mxCell id="31" style="vsdxID=99;edgeStyle=none;startArrow=none;endArrow=block;startSize=5;endSize=5;strokeColor=#5b9bd5;spacingTop=0;spacingBottom=0;spacingLeft=0;spacingRight=0;verticalAlign=middle;html=1;labelBackgroundColor=#ffffff;rounded=0;exitX=0.5;exitY=1;exitDx=0;exitDy=0;exitPerimeter=0;entryX=0.5;entryY=0;entryDx=0;entryDy=0;entryPerimeter=0;" parent="1" source="8" target="10" edge="1">
          <mxGeometry relative="1" as="geometry">
            <mxPoint x="10" as="offset"/>
            <Array as="points"/>
          </mxGeometry>
        </mxCell>
        <mxCell id="32" style="vsdxID=100;edgeStyle=none;startArrow=none;endArrow=block;startSize=5;endSize=5;strokeColor=#5b9bd5;spacingTop=0;spacingBottom=0;spacingLeft=0;spacingRight=0;verticalAlign=middle;html=1;labelBackgroundColor=#ffffff;rounded=0;exitX=0.5;exitY=1;exitDx=0;exitDy=0;exitPerimeter=0;entryX=0.5;entryY=0;entryDx=0;entryDy=0;entryPerimeter=0;" parent="1" source="10" target="11" edge="1">
          <mxGeometry relative="1" as="geometry">
            <mxPoint x="10" as="offset"/>
            <Array as="points"/>
          </mxGeometry>
        </mxCell>
        <mxCell id="33" style="vsdxID=101;edgeStyle=none;startArrow=none;endArrow=block;startSize=5;endSize=5;strokeColor=#5b9bd5;spacingTop=0;spacingBottom=0;spacingLeft=0;spacingRight=0;verticalAlign=middle;html=1;labelBackgroundColor=#ffffff;rounded=0;exitX=0.5;exitY=1;exitDx=0;exitDy=0;exitPerimeter=0;entryX=0.5;entryY=0;entryDx=0;entryDy=0;entryPerimeter=0;" parent="1" source="11" target="12" edge="1">
          <mxGeometry relative="1" as="geometry">
            <mxPoint x="10" as="offset"/>
            <Array as="points"/>
          </mxGeometry>
        </mxCell>
        <mxCell id="2" value="Flowchart" parent="0"/>
        <mxCell id="3" style="vsdxID=3;fillColor=#44749f;gradientColor=none;shape=stencil(UzV2Ls5ILEhVNTIoLinKz04tz0wpyVA1dlE1MsrMy0gtyiwBslSNXVWNndPyi1LTi/JL81Ig/IJEkEoQKze/DGRCBUSfAUiHkUElhGcK4bpBVOZk5iGpNEVVikeloQHZpsK0YlWLz1QgA+HFtMycHEgIIcujBwlQCBKcxq4A);strokeColor=#41719c;spacingTop=-1;spacingBottom=-1;spacingLeft=-1;spacingRight=-1;labelBackgroundColor=none;rounded=0;html=1;whiteSpace=wrap;" parent="2" vertex="1">
          <mxGeometry x="104" y="220" width="100" height="60" as="geometry"/>
        </mxCell>
        <mxCell id="4" value="&lt;font style=&quot;font-size:11px;font-family:Calibri;color:#feffff;direction:ltr;letter-spacing:0px;line-height:120%;opacity:1&quot;&gt;Thread Stop? &lt;br/&gt;&lt;/font&gt;" style="text;vsdxID=3;fillColor=none;gradientColor=none;strokeColor=none;spacingTop=-1;spacingBottom=-1;spacingLeft=-1;spacingRight=-1;labelBackgroundColor=none;rounded=0;html=1;whiteSpace=wrap;verticalAlign=middle;align=center;;html=1;" parent="3" vertex="1">
          <mxGeometry x="8.33" y="7.5" width="83.33" height="45" as="geometry"/>
        </mxCell>
        <mxCell id="5" value="&lt;font style=&quot;font-size:11px;font-family:Calibri;color:#feffff;direction:ltr;letter-spacing:0px;line-height:120%;opacity:1&quot;&gt;Initialize&lt;br/&gt;&lt;/font&gt;" style="verticalAlign=middle;align=center;vsdxID=4;fillColor=#44749f;gradientColor=none;shape=stencil(tVLRDsIgDPwaHkkQYuL7nP9BXLc1IiwF3fb3Qphxm9MHE996ves1R2Gq8K3ugEnhA7kL9FiFlqkjkxJtC4QhVkyVTBW1I2jI3WyVcaeTMlVXd08OQ56TIo1IMWa4ExmfstagnWkPX7WazpGjlS9N4v2Et62eJNcDek4u6IDOLjijqQEel/Da6GZB+R6ge2tvRpBbe38J8OHd/hIhFq/z1WhMvv6cX587tvJXUeUD);strokeColor=#41719c;spacingTop=-1;spacingBottom=-1;spacingLeft=-1;spacingRight=-1;labelBackgroundColor=none;rounded=0;html=1;whiteSpace=wrap;" parent="2" vertex="1">
          <mxGeometry x="104" y="160" width="100" height="40" as="geometry"/>
        </mxCell>
        <mxCell id="6" value="&lt;font style=&quot;font-size:11px;font-family:Calibri;color:#feffff;direction:ltr;letter-spacing:0px;line-height:120%;opacity:1&quot;&gt;Update Sales History with the items sold &lt;br/&gt;&lt;/font&gt;" style="verticalAlign=middle;align=center;vsdxID=7;fillColor=#5b9bd5;gradientColor=none;shape=stencil(nZBLDoAgDERP0z3SIyjew0SURgSD+Lu9kMZoXLhwN9O+tukAlrNpJg1SzDH4QW/URgNYgZTkjA4UkwJUgGXng+6DX1zLfmoymdXo17xh5zmRJ6Q42BWCfc2oJfdAr+Yv+AP9Cb7OJ3H/2JG1HNGz/84klThPVCc=);strokeColor=#c8c8c8;spacingTop=-1;spacingBottom=-1;spacingLeft=-1;spacingRight=-1;labelBackgroundColor=none;rounded=0;html=1;whiteSpace=wrap;" parent="2" vertex="1">
          <mxGeometry x="264" y="220" width="100" height="60" as="geometry"/>
        </mxCell>
        <mxCell id="7" value="&lt;font style=&quot;font-size:11px;font-family:Calibri;color:#feffff;direction:ltr;letter-spacing:0px;line-height:120%;opacity:1&quot;&gt;End&lt;br/&gt;&lt;/font&gt;" style="verticalAlign=middle;align=center;vsdxID=8;fillColor=#44749f;gradientColor=none;shape=stencil(tVLRDsIgDPwaHkkQYuL7nP9BXLc1IiwF3fb3Qphxm9MHE996ves1R2Gq8K3ugEnhA7kL9FiFlqkjkxJtC4QhVkyVTBW1I2jI3WyVcaeTMlVXd08OQ56TIo1IMWa4ExmfstagnWkPX7WazpGjlS9N4v2Et62eJNcDek4u6IDOLjijqQEel/Da6GZB+R6ge2tvRpBbe38J8OHd/hIhFq/z1WhMvv6cX587tvJXUeUD);strokeColor=#41719c;spacingTop=-1;spacingBottom=-1;spacingLeft=-1;spacingRight=-1;labelBackgroundColor=none;rounded=0;html=1;whiteSpace=wrap;" parent="2" vertex="1">
          <mxGeometry x="104" y="928" width="100" height="40" as="geometry"/>
        </mxCell>
        <mxCell id="8" value="&lt;font style=&quot;font-size:11px;font-family:Calibri;color:#feffff;direction:ltr;letter-spacing:0px;line-height:120%;opacity:1&quot;&gt;Reset the  Sales items sold counter&lt;br/&gt;&lt;/font&gt;" style="verticalAlign=middle;align=center;vsdxID=87;fillColor=#5b9bd5;gradientColor=none;shape=stencil(nZBLDoAgDERP0z3SIyjew0SURgSD+Lu9kMZoXLhwN9O+tukAlrNpJg1SzDH4QW/URgNYgZTkjA4UkwJUgGXng+6DX1zLfmoymdXo17xh5zmRJ6Q42BWCfc2oJfdAr+Yv+AP9Cb7OJ3H/2JG1HNGz/84klThPVCc=);strokeColor=#c8c8c8;spacingTop=-1;spacingBottom=-1;spacingLeft=-1;spacingRight=-1;labelBackgroundColor=none;rounded=0;html=1;whiteSpace=wrap;" parent="2" vertex="1">
          <mxGeometry x="264" y="310" width="100" height="60" as="geometry"/>
        </mxCell>
        <mxCell id="9" value="&lt;font style=&quot;font-size:11px;font-family:Calibri;color:#feffff;direction:ltr;letter-spacing:0px;line-height:120%;opacity:1&quot;&gt;Acquire lock&lt;br/&gt;&lt;/font&gt;" style="verticalAlign=middle;align=center;vsdxID=89;fillColor=#5b9bd5;gradientColor=none;shape=stencil(nZBLDoAgDERP0z3SIyjew0SURgSD+Lu9kMZoXLhwN9O+tukAlrNpJg1SzDH4QW/URgNYgZTkjA4UkwJUgGXng+6DX1zLfmoymdXo17xh5zmRJ6Q42BWCfc2oJfdAr+Yv+AP9Cb7OJ3H/2JG1HNGz/84klThPVCc=);strokeColor=#c8c8c8;spacingTop=-1;spacingBottom=-1;spacingLeft=-1;spacingRight=-1;labelBackgroundColor=none;rounded=0;html=1;whiteSpace=wrap;" parent="2" vertex="1">
          <mxGeometry x="264" y="140" width="100" height="60" as="geometry"/>
        </mxCell>
        <mxCell id="10" value="&lt;font style=&quot;font-size:11px;font-family:Calibri;color:#feffff;direction:ltr;letter-spacing:0px;line-height:120%;opacity:1&quot;&gt;Release lock&lt;br/&gt;&lt;/font&gt;" style="verticalAlign=middle;align=center;vsdxID=90;fillColor=#5b9bd5;gradientColor=none;shape=stencil(nZBLDoAgDERP0z3SIyjew0SURgSD+Lu9kMZoXLhwN9O+tukAlrNpJg1SzDH4QW/URgNYgZTkjA4UkwJUgGXng+6DX1zLfmoymdXo17xh5zmRJ6Q42BWCfc2oJfdAr+Yv+AP9Cb7OJ3H/2JG1HNGz/84klThPVCc=);strokeColor=#c8c8c8;spacingTop=-1;spacingBottom=-1;spacingLeft=-1;spacingRight=-1;labelBackgroundColor=none;rounded=0;html=1;whiteSpace=wrap;" parent="2" vertex="1">
          <mxGeometry x="264" y="386" width="100" height="60" as="geometry"/>
        </mxCell>
        <mxCell id="11" value="&lt;font style=&quot;font-size:11px;font-family:Calibri;color:#feffff;direction:ltr;letter-spacing:0px;line-height:120%;opacity:1&quot;&gt;Update revenue_history with sold count * product price&lt;br/&gt;&lt;/font&gt;" style="verticalAlign=middle;align=center;vsdxID=91;fillColor=#5b9bd5;gradientColor=none;shape=stencil(nZBLDoAgDERP0z3SIyjew0SURgSD+Lu9kMZoXLhwN9O+tukAlrNpJg1SzDH4QW/URgNYgZTkjA4UkwJUgGXng+6DX1zLfmoymdXo17xh5zmRJ6Q42BWCfc2oJfdAr+Yv+AP9Cb7OJ3H/2JG1HNGz/84klThPVCc=);strokeColor=#c8c8c8;spacingTop=-1;spacingBottom=-1;spacingLeft=-1;spacingRight=-1;labelBackgroundColor=none;rounded=0;html=1;whiteSpace=wrap;" parent="2" vertex="1">
          <mxGeometry x="264" y="462" width="100" height="60" as="geometry"/>
        </mxCell>
        <mxCell id="12" value="&lt;font style=&quot;font-size:11px;font-family:Calibri;color:#feffff;direction:ltr;letter-spacing:0px;line-height:120%;opacity:1&quot;&gt;Update profit_history with (revenue – expense)&lt;br/&gt;&lt;/font&gt;" style="verticalAlign=middle;align=center;vsdxID=92;fillColor=#5b9bd5;gradientColor=none;shape=stencil(nZBLDoAgDERP0z3SIyjew0SURgSD+Lu9kMZoXLhwN9O+tukAlrNpJg1SzDH4QW/URgNYgZTkjA4UkwJUgGXng+6DX1zLfmoymdXo17xh5zmRJ6Q42BWCfc2oJfdAr+Yv+AP9Cb7OJ3H/2JG1HNGz/84klThPVCc=);strokeColor=#c8c8c8;spacingTop=-1;spacingBottom=-1;spacingLeft=-1;spacingRight=-1;labelBackgroundColor=none;rounded=0;html=1;whiteSpace=wrap;" parent="2" vertex="1">
          <mxGeometry x="264" y="538" width="100" height="60" as="geometry"/>
        </mxCell>
        <mxCell id="13" value="&lt;font style=&quot;font-size:11px;font-family:Calibri;color:#feffff;direction:ltr;letter-spacing:0px;line-height:120%;opacity:1&quot;&gt;Update sentiment_history with user_sentiment&lt;br/&gt;&lt;/font&gt;" style="verticalAlign=middle;align=center;vsdxID=93;fillColor=#5b9bd5;gradientColor=none;shape=stencil(nZBLDoAgDERP0z3SIyjew0SURgSD+Lu9kMZoXLhwN9O+tukAlrNpJg1SzDH4QW/URgNYgZTkjA4UkwJUgGXng+6DX1zLfmoymdXo17xh5zmRJ6Q42BWCfc2oJfdAr+Yv+AP9Cb7OJ3H/2JG1HNGz/84klThPVCc=);strokeColor=#c8c8c8;spacingTop=-1;spacingBottom=-1;spacingLeft=-1;spacingRight=-1;labelBackgroundColor=none;rounded=0;html=1;whiteSpace=wrap;" parent="2" vertex="1">
          <mxGeometry x="264" y="614" width="100" height="60" as="geometry"/>
        </mxCell>
        <mxCell id="14" value="&lt;font style=&quot;font-size:11px;font-family:Calibri;color:#feffff;direction:ltr;letter-spacing:0px;line-height:120%;opacity:1&quot;&gt;Add profit to wallet&lt;br/&gt;&lt;/font&gt;" style="verticalAlign=middle;align=center;vsdxID=95;fillColor=#5b9bd5;gradientColor=none;shape=stencil(nZBLDoAgDERP0z3SIyjew0SURgSD+Lu9kMZoXLhwN9O+tukAlrNpJg1SzDH4QW/URgNYgZTkjA4UkwJUgGXng+6DX1zLfmoymdXo17xh5zmRJ6Q42BWCfc2oJfdAr+Yv+AP9Cb7OJ3H/2JG1HNGz/84klThPVCc=);strokeColor=#c8c8c8;spacingTop=-1;spacingBottom=-1;spacingLeft=-1;spacingRight=-1;labelBackgroundColor=none;rounded=0;html=1;whiteSpace=wrap;" parent="2" vertex="1">
          <mxGeometry x="264" y="690" width="100" height="60" as="geometry"/>
        </mxCell>
        <mxCell id="15" value="&lt;font style=&quot;font-size:11px;font-family:Calibri;color:#feffff;direction:ltr;letter-spacing:0px;line-height:120%;opacity:1&quot;&gt;CEO decide advertisement type and scale&lt;br/&gt;&lt;/font&gt;" style="verticalAlign=middle;align=center;vsdxID=96;fillColor=#5b9bd5;gradientColor=none;shape=stencil(nZBLDoAgDERP0z3SIyjew0SURgSD+Lu9kMZoXLhwN9O+tukAlrNpJg1SzDH4QW/URgNYgZTkjA4UkwJUgGXng+6DX1zLfmoymdXo17xh5zmRJ6Q42BWCfc2oJfdAr+Yv+AP9Cb7OJ3H/2JG1HNGz/84klThPVCc=);strokeColor=#c8c8c8;spacingTop=-1;spacingBottom=-1;spacingLeft=-1;spacingRight=-1;labelBackgroundColor=none;rounded=0;html=1;whiteSpace=wrap;" parent="2" vertex="1">
          <mxGeometry x="264" y="766" width="100" height="60" as="geometry"/>
        </mxCell>
        <mxCell id="16" value="&lt;font style=&quot;font-size:11px;font-family:Calibri;color:#feffff;direction:ltr;letter-spacing:0px;line-height:120%;opacity:1&quot;&gt;Post advertisement&lt;br/&gt;&lt;/font&gt;" style="verticalAlign=middle;align=center;vsdxID=97;fillColor=#5b9bd5;gradientColor=none;shape=stencil(nZBLDoAgDERP0z3SIyjew0SURgSD+Lu9kMZoXLhwN9O+tukAlrNpJg1SzDH4QW/URgNYgZTkjA4UkwJUgGXng+6DX1zLfmoymdXo17xh5zmRJ6Q42BWCfc2oJfdAr+Yv+AP9Cb7OJ3H/2JG1HNGz/84klThPVCc=);strokeColor=#c8c8c8;spacingTop=-1;spacingBottom=-1;spacingLeft=-1;spacingRight=-1;labelBackgroundColor=none;rounded=0;html=1;whiteSpace=wrap;" parent="2" vertex="1">
          <mxGeometry x="264" y="842" width="100" height="60" as="geometry"/>
        </mxCell>
        <mxCell id="17" value="&lt;font style=&quot;font-size:11px;font-family:Calibri;color:#feffff;direction:ltr;letter-spacing:0px;line-height:120%;opacity:1&quot;&gt;Append advertisement cost to expense_history&lt;br/&gt;&lt;/font&gt;" style="verticalAlign=middle;align=center;vsdxID=98;fillColor=#5b9bd5;gradientColor=none;shape=stencil(nZBLDoAgDERP0z3SIyjew0SURgSD+Lu9kMZoXLhwN9O+tukAlrNpJg1SzDH4QW/URgNYgZTkjA4UkwJUgGXng+6DX1zLfmoymdXo17xh5zmRJ6Q42BWCfc2oJfdAr+Yv+AP9Cb7OJ3H/2JG1HNGz/84klThPVCc=);strokeColor=#c8c8c8;spacingTop=-1;spacingBottom=-1;spacingLeft=-1;spacingRight=-1;labelBackgroundColor=none;rounded=0;html=1;whiteSpace=wrap;" parent="2" vertex="1">
          <mxGeometry x="264" y="918" width="100" height="60" as="geometry"/>
        </mxCell>
        <mxCell id="18" value="&lt;font style=&quot;font-size:11px;font-family:Calibri;color:#feffff;direction:ltr;letter-spacing:0px;line-height:120%;opacity:1&quot;&gt;Kill thread&lt;br/&gt;&lt;/font&gt;" style="verticalAlign=middle;align=center;vsdxID=111;fillColor=#5b9bd5;gradientColor=none;shape=stencil(nZBLDoAgDERP0z3SIyjew0SURgSD+Lu9kMZoXLhwN9O+tukAlrNpJg1SzDH4QW/URgNYgZTkjA4UkwJUgGXng+6DX1zLfmoymdXo17xh5zmRJ6Q42BWCfc2oJfdAr+Yv+AP9Cb7OJ3H/2JG1HNGz/84klThPVCc=);strokeColor=#c8c8c8;spacingTop=-1;spacingBottom=-1;spacingLeft=-1;spacingRight=-1;labelBackgroundColor=none;rounded=0;html=1;whiteSpace=wrap;" parent="2" vertex="1">
          <mxGeometry x="104" y="310" width="100" height="60" as="geometry"/>
        </mxCell>
      </root>
    </mxGraphModel>
  </diagram>
  <diagram name="Subprocess" id="Subprocess">
    <mxGraphModel dx="868" dy="433" grid="1" gridSize="10" guides="1" tooltips="1" connect="1" arrows="1" fold="1" page="1" pageScale="1" pageWidth="850" pageHeight="1100" math="0" shadow="0">
      <root>
        <mxCell id="0"/>
        <mxCell id="1" parent="0"/>
        <mxCell id="2" value="Flowchart" parent="0"/>
      </root>
    </mxGraphModel>
  </diagram>
  <diagram name="Customer" id="Customer">
    <mxGraphModel dx="868" dy="433" grid="1" gridSize="10" guides="1" tooltips="1" connect="1" arrows="1" fold="1" page="1" pageScale="1" pageWidth="850" pageHeight="1100" math="0" shadow="0">
      <root>
        <mxCell id="0"/>
        <mxCell id="1" parent="0"/>
        <mxCell id="3" style="vsdxID=1;fillColor=#44749f;gradientColor=none;shape=stencil(UzV2Ls5ILEhVNTIoLinKz04tz0wpyVA1dlE1MsrMy0gtyiwBslSNXVWNndPyi1LTi/JL81Ig/IJEkEoQKze/DGRCBUSfAUiHkUElhGcK4bpBVOZk5iGpNEVVikeloQHZpsK0YlWLz1QgA+HFtMycHEgIIcujBwlQCBKcxq4A);strokeColor=#41719c;spacingTop=-1;spacingBottom=-1;spacingLeft=-1;spacingRight=-1;labelBackgroundColor=none;rounded=0;html=1;whiteSpace=wrap;" parent="1" vertex="1">
          <mxGeometry x="440" y="260" width="100" height="60" as="geometry"/>
        </mxCell>
        <mxCell id="4" value="&lt;font style=&quot;font-size:11px;font-family:Calibri;color:#feffff;direction:ltr;letter-spacing:0px;line-height:120%;opacity:1&quot;&gt;Thread Stop? &lt;br/&gt;&lt;/font&gt;" style="text;vsdxID=1;fillColor=none;gradientColor=none;strokeColor=none;spacingTop=-1;spacingBottom=-1;spacingLeft=-1;spacingRight=-1;labelBackgroundColor=none;rounded=0;html=1;whiteSpace=wrap;verticalAlign=middle;align=center;;html=1;" parent="3" vertex="1">
          <mxGeometry x="8.33" y="7.5" width="83.33" height="45" as="geometry"/>
        </mxCell>
        <mxCell id="5" value="&lt;font style=&quot;font-size:11px;font-family:Calibri;color:#feffff;direction:ltr;letter-spacing:0px;line-height:120%;opacity:1&quot;&gt;Initialize&lt;br/&gt;&lt;/font&gt;" style="verticalAlign=middle;align=center;vsdxID=2;fillColor=#44749f;gradientColor=none;shape=stencil(tVLRDsIgDPwaHkkQYuL7nP9BXLc1IiwF3fb3Qphxm9MHE996ves1R2Gq8K3ugEnhA7kL9FiFlqkjkxJtC4QhVkyVTBW1I2jI3WyVcaeTMlVXd08OQ56TIo1IMWa4ExmfstagnWkPX7WazpGjlS9N4v2Et62eJNcDek4u6IDOLjijqQEel/Da6GZB+R6ge2tvRpBbe38J8OHd/hIhFq/z1WhMvv6cX587tvJXUeUD);strokeColor=#41719c;spacingTop=-1;spacingBottom=-1;spacingLeft=-1;spacingRight=-1;labelBackgroundColor=none;rounded=0;html=1;whiteSpace=wrap;" parent="1" vertex="1">
          <mxGeometry x="440" y="112" width="100" height="40" as="geometry"/>
        </mxCell>
        <mxCell id="6" value="&lt;font style=&quot;font-size:11px;font-family:Calibri;color:#feffff;direction:ltr;letter-spacing:0px;line-height:120%;opacity:1&quot;&gt;GET LATEST 100 TWEETS FOR THAT PRODUCT&lt;br/&gt;&lt;/font&gt;" style="verticalAlign=middle;align=center;vsdxID=3;fillColor=#5b9bd5;gradientColor=none;shape=stencil(nZBLDoAgDERP0z3SIyjew0SURgSD+Lu9kMZoXLhwN9O+tukAlrNpJg1SzDH4QW/URgNYgZTkjA4UkwJUgGXng+6DX1zLfmoymdXo17xh5zmRJ6Q42BWCfc2oJfdAr+Yv+AP9Cb7OJ3H/2JG1HNGz/84klThPVCc=);strokeColor=#c8c8c8;spacingTop=-1;spacingBottom=-1;spacingLeft=-1;spacingRight=-1;labelBackgroundColor=none;rounded=0;html=1;whiteSpace=wrap;" parent="1" vertex="1">
          <mxGeometry x="621" y="440" width="138" height="82" as="geometry"/>
        </mxCell>
        <mxCell id="7" value="&lt;font style=&quot;font-size:11px;font-family:Calibri;color:#feffff;direction:ltr;letter-spacing:0px;line-height:120%;opacity:1&quot;&gt;End&lt;br/&gt;&lt;/font&gt;" style="verticalAlign=middle;align=center;vsdxID=4;fillColor=#44749f;gradientColor=none;shape=stencil(tVLRDsIgDPwaHkkQYuL7nP9BXLc1IiwF3fb3Qphxm9MHE996ves1R2Gq8K3ugEnhA7kL9FiFlqkjkxJtC4QhVkyVTBW1I2jI3WyVcaeTMlVXd08OQ56TIo1IMWa4ExmfstagnWkPX7WazpGjlS9N4v2Et62eJNcDek4u6IDOLjijqQEel/Da6GZB+R6ge2tvRpBbe38J8OHd/hIhFq/z1WhMvv6cX587tvJXUeUD);strokeColor=#41719c;spacingTop=-1;spacingBottom=-1;spacingLeft=-1;spacingRight=-1;labelBackgroundColor=none;rounded=0;html=1;whiteSpace=wrap;" parent="1" vertex="1">
          <mxGeometry x="440" y="2025" width="100" height="40" as="geometry"/>
        </mxCell>
        <mxCell id="8" value="&lt;font style=&quot;font-size:11px;font-family:Calibri;color:#feffff;direction:ltr;letter-spacing:0px;line-height:120%;opacity:1&quot;&gt;USER_SENTIMENT = 1&lt;br/&gt;&lt;/font&gt;" style="verticalAlign=middle;align=center;vsdxID=7;fillColor=#5b9bd5;gradientColor=none;shape=stencil(nZBLDoAgDERP0z3SIyjew0SURgSD+Lu9kMZoXLhwN9O+tukAlrNpJg1SzDH4QW/URgNYgZTkjA4UkwJUgGXng+6DX1zLfmoymdXo17xh5zmRJ6Q42BWCfc2oJfdAr+Yv+AP9Cb7OJ3H/2JG1HNGz/84klThPVCc=);strokeColor=#c8c8c8;spacingTop=-1;spacingBottom=-1;spacingLeft=-1;spacingRight=-1;labelBackgroundColor=none;rounded=0;html=1;whiteSpace=wrap;" parent="1" vertex="1">
          <mxGeometry x="625" y="658" width="130" height="60" as="geometry"/>
        </mxCell>
        <mxCell id="9" value="&lt;font style=&quot;font-size:11px;font-family:Calibri;color:#feffff;direction:ltr;letter-spacing:0px;line-height:120%;opacity:1&quot;&gt;Acquire lock&lt;br/&gt;&lt;/font&gt;" style="verticalAlign=middle;align=center;vsdxID=8;fillColor=#5b9bd5;gradientColor=none;shape=stencil(nZBLDoAgDERP0z3SIyjew0SURgSD+Lu9kMZoXLhwN9O+tukAlrNpJg1SzDH4QW/URgNYgZTkjA4UkwJUgGXng+6DX1zLfmoymdXo17xh5zmRJ6Q42BWCfc2oJfdAr+Yv+AP9Cb7OJ3H/2JG1HNGz/84klThPVCc=);strokeColor=#c8c8c8;spacingTop=-1;spacingBottom=-1;spacingLeft=-1;spacingRight=-1;labelBackgroundColor=none;rounded=0;html=1;whiteSpace=wrap;" parent="1" vertex="1">
          <mxGeometry x="640" y="260" width="100" height="60" as="geometry"/>
        </mxCell>
        <mxCell id="10" value="&lt;font style=&quot;font-size:11px;font-family:Calibri;color:#feffff;direction:ltr;letter-spacing:0px;line-height:120%;opacity:1&quot;&gt;Kill thread&lt;br/&gt;&lt;/font&gt;" style="verticalAlign=middle;align=center;vsdxID=27;fillColor=#5b9bd5;gradientColor=none;shape=stencil(nZBLDoAgDERP0z3SIyjew0SURgSD+Lu9kMZoXLhwN9O+tukAlrNpJg1SzDH4QW/URgNYgZTkjA4UkwJUgGXng+6DX1zLfmoymdXo17xh5zmRJ6Q42BWCfc2oJfdAr+Yv+AP9Cb7OJ3H/2JG1HNGz/84klThPVCc=);strokeColor=#c8c8c8;spacingTop=-1;spacingBottom=-1;spacingLeft=-1;spacingRight=-1;labelBackgroundColor=none;rounded=0;html=1;whiteSpace=wrap;" parent="1" vertex="1">
          <mxGeometry x="440" y="350" width="100" height="60" as="geometry"/>
        </mxCell>
        <mxCell id="11" style="vsdxID=31;fillColor=#44749f;gradientColor=none;shape=stencil(UzV2Ls5ILEhVNTIoLinKz04tz0wpyVA1dlE1MsrMy0gtyiwBslSNXVWNndPyi1LTi/JL81Ig/IJEkEoQKze/DGRCBUSfAUiHkUElhGcK4bpBVOZk5iGpNEVVikeloQHZpsK0YlWLz1QgA+HFtMycHEgIIcujBwlQCBKcxq4A);strokeColor=#41719c;spacingTop=-1;spacingBottom=-1;spacingLeft=-1;spacingRight=-1;labelBackgroundColor=none;rounded=0;html=1;whiteSpace=wrap;" parent="1" vertex="1">
          <mxGeometry x="613" y="763" width="154" height="60" as="geometry"/>
        </mxCell>
        <mxCell id="12" value="&lt;font style=&quot;font-size:11px;font-family:Calibri;color:#feffff;direction:ltr;letter-spacing:0px;line-height:120%;opacity:1&quot;&gt;USER_SENTIMENT&amp;gt;= USER_TOLERANCE&lt;br/&gt;&lt;/font&gt;" style="text;vsdxID=31;fillColor=none;gradientColor=none;strokeColor=none;spacingTop=-1;spacingBottom=-1;spacingLeft=-1;spacingRight=-1;labelBackgroundColor=none;rounded=0;html=1;whiteSpace=wrap;verticalAlign=middle;align=center;;html=1;" parent="11" vertex="1">
          <mxGeometry x="12.83" y="7.5" width="128.33" height="45" as="geometry"/>
        </mxCell>
        <mxCell id="13" style="vsdxID=32;fillColor=#44749f;gradientColor=none;shape=stencil(UzV2Ls5ILEhVNTIoLinKz04tz0wpyVA1dlE1MsrMy0gtyiwBslSNXVWNndPyi1LTi/JL81Ig/IJEkEoQKze/DGRCBUSfAUiHkUElhGcK4bpBVOZk5iGpNEVVikeloQHZpsK0YlWLz1QgA+HFtMycHEgIIcujBwlQCBKcxq4A);strokeColor=#41719c;spacingTop=-1;spacingBottom=-1;spacingLeft=-1;spacingRight=-1;labelBackgroundColor=none;rounded=0;html=1;whiteSpace=wrap;" parent="1" vertex="1">
          <mxGeometry x="600" y="886" width="179" height="77" as="geometry"/>
        </mxCell>
        <mxCell id="14" value="&lt;font style=&quot;font-size:11px;font-family:Calibri;color:#feffff;direction:ltr;letter-spacing:0px;line-height:120%;opacity:1&quot;&gt;PRODUCT IS IN OWNED SET&lt;/font&gt;&lt;font style=&quot;font-size:11px;font-family:Themed;color:#feffff;direction:ltr;letter-spacing:0px;line-height:120%;opacity:1&quot;&gt;&lt;br/&gt;&lt;/font&gt;" style="text;vsdxID=32;fillColor=none;gradientColor=none;strokeColor=none;spacingTop=-1;spacingBottom=-1;spacingLeft=-1;spacingRight=-1;labelBackgroundColor=none;rounded=0;html=1;whiteSpace=wrap;verticalAlign=middle;align=center;;html=1;" parent="13" vertex="1">
          <mxGeometry x="14.92" y="8.9" width="149.17" height="58.37" as="geometry"/>
        </mxCell>
        <mxCell id="15" style="vsdxID=39;fillColor=#44749f;gradientColor=none;shape=stencil(UzV2Ls5ILEhVNTIoLinKz04tz0wpyVA1dlE1MsrMy0gtyiwBslSNXVWNndPyi1LTi/JL81Ig/IJEkEoQKze/DGRCBUSfAUiHkUElhGcK4bpBVOZk5iGpNEVVikeloQHZpsK0YlWLz1QgA+HFtMycHEgIIcujBwlQCBKcxq4A);strokeColor=#41719c;spacingTop=-1;spacingBottom=-1;spacingLeft=-1;spacingRight=-1;labelBackgroundColor=none;rounded=0;html=1;whiteSpace=wrap;" parent="1" vertex="1">
          <mxGeometry x="640" y="552" width="100" height="60" as="geometry"/>
        </mxCell>
        <mxCell id="16" value="&lt;font style=&quot;font-size:11px;font-family:Calibri;color:#feffff;direction:ltr;letter-spacing:0px;line-height:120%;opacity:1&quot;&gt;NUMBER OF TWEETS == 0&lt;br/&gt;&lt;/font&gt;" style="text;vsdxID=39;fillColor=none;gradientColor=none;strokeColor=none;spacingTop=-1;spacingBottom=-1;spacingLeft=-1;spacingRight=-1;labelBackgroundColor=none;rounded=0;html=1;whiteSpace=wrap;verticalAlign=middle;align=center;;html=1;" parent="15" vertex="1">
          <mxGeometry x="8.33" y="7.5" width="83.33" height="45" as="geometry"/>
        </mxCell>
        <mxCell id="17" value="&lt;font style=&quot;font-size:11px;font-family:Calibri;color:#feffff;direction:ltr;letter-spacing:0px;line-height:120%;opacity:1&quot;&gt;USER_SENTIMENT= POSITIVE_TWEETS.MEAN&lt;br/&gt;&lt;/font&gt;" style="verticalAlign=middle;align=center;vsdxID=43;fillColor=#5b9bd5;gradientColor=none;shape=stencil(nZBLDoAgDERP0z3SIyjew0SURgSD+Lu9kMZoXLhwN9O+tukAlrNpJg1SzDH4QW/URgNYgZTkjA4UkwJUgGXng+6DX1zLfmoymdXo17xh5zmRJ6Q42BWCfc2oJfdAr+Yv+AP9Cb7OJ3H/2JG1HNGz/84klThPVCc=);strokeColor=#c8c8c8;spacingTop=-1;spacingBottom=-1;spacingLeft=-1;spacingRight=-1;labelBackgroundColor=none;rounded=0;html=1;whiteSpace=wrap;" parent="1" vertex="1">
          <mxGeometry x="800" y="552" width="100" height="60" as="geometry"/>
        </mxCell>
        <mxCell id="18" style="vsdxID=47;fillColor=#44749f;gradientColor=none;shape=stencil(UzV2Ls5ILEhVNTIoLinKz04tz0wpyVA1dlE1MsrMy0gtyiwBslSNXVWNndPyi1LTi/JL81Ig/IJEkEoQKze/DGRCBUSfAUiHkUElhGcK4bpBVOZk5iGpNEVVikeloQHZpsK0YlWLz1QgA+HFtMycHEgIIcujBwlQCBKcxq4A);strokeColor=#41719c;spacingTop=-1;spacingBottom=-1;spacingLeft=-1;spacingRight=-1;labelBackgroundColor=none;rounded=0;html=1;whiteSpace=wrap;" parent="1" vertex="1">
          <mxGeometry x="614" y="1027" width="152" height="91" as="geometry"/>
        </mxCell>
        <mxCell id="19" value="&lt;font style=&quot;font-size:11px;font-family:Calibri;color:#feffff;direction:ltr;letter-spacing:0px;line-height:120%;opacity:1&quot;&gt;RANDOM.RANDOM&amp;lt;0.2&lt;br/&gt;&lt;/font&gt;" style="text;vsdxID=47;fillColor=none;gradientColor=none;strokeColor=none;spacingTop=-1;spacingBottom=-1;spacingLeft=-1;spacingRight=-1;labelBackgroundColor=none;rounded=0;html=1;whiteSpace=wrap;verticalAlign=middle;align=center;;html=1;" parent="18" vertex="1">
          <mxGeometry x="12.67" y="11.2" width="126.67" height="68.4" as="geometry"/>
        </mxCell>
        <mxCell id="20" value="&lt;font style=&quot;font-size:11px;font-family:Calibri;color:#feffff;direction:ltr;letter-spacing:0px;line-height:120%;opacity:1&quot;&gt;BUY PRODUCT&lt;br/&gt;&lt;/font&gt;" style="verticalAlign=middle;align=center;vsdxID=49;fillColor=#5b9bd5;gradientColor=none;shape=stencil(nZBLDoAgDERP0z3SIyjew0SURgSD+Lu9kMZoXLhwN9O+tukAlrNpJg1SzDH4QW/URgNYgZTkjA4UkwJUgGXng+6DX1zLfmoymdXo17xh5zmRJ6Q42BWCfc2oJfdAr+Yv+AP9Cb7OJ3H/2JG1HNGz/84klThPVCc=);strokeColor=#c8c8c8;spacingTop=-1;spacingBottom=-1;spacingLeft=-1;spacingRight=-1;labelBackgroundColor=none;rounded=0;html=1;whiteSpace=wrap;" parent="1" vertex="1">
          <mxGeometry x="640" y="1179" width="100" height="60" as="geometry"/>
        </mxCell>
        <mxCell id="21" style="vsdxID=51;fillColor=#44749f;gradientColor=none;shape=stencil(UzV2Ls5ILEhVNTIoLinKz04tz0wpyVA1dlE1MsrMy0gtyiwBslSNXVWNndPyi1LTi/JL81Ig/IJEkEoQKze/DGRCBUSfAUiHkUElhGcK4bpBVOZk5iGpNEVVikeloQHZpsK0YlWLz1QgA+HFtMycHEgIIcujBwlQCBKcxq4A);strokeColor=#41719c;spacingTop=-1;spacingBottom=-1;spacingLeft=-1;spacingRight=-1;labelBackgroundColor=none;rounded=0;html=1;whiteSpace=wrap;" parent="1" vertex="1">
          <mxGeometry x="792" y="1026" width="154" height="92" as="geometry"/>
        </mxCell>
        <mxCell id="22" value="&lt;font style=&quot;font-size:11px;font-family:Calibri;color:#feffff;direction:ltr;letter-spacing:0px;line-height:120%;opacity:1&quot;&gt;RANDOM.RANDOM&amp;lt;0.01&lt;/font&gt;&lt;font style=&quot;font-size:11px;font-family:Themed;color:#feffff;direction:ltr;letter-spacing:0px;line-height:120%;opacity:1&quot;&gt;&lt;br/&gt;&lt;/font&gt;" style="text;vsdxID=51;fillColor=none;gradientColor=none;strokeColor=none;spacingTop=-1;spacingBottom=-1;spacingLeft=-1;spacingRight=-1;labelBackgroundColor=none;rounded=0;html=1;whiteSpace=wrap;verticalAlign=middle;align=center;;html=1;" parent="21" vertex="1">
          <mxGeometry x="12.83" y="11.15" width="128.33" height="69.3" as="geometry"/>
        </mxCell>
        <mxCell id="23" value="&lt;font style=&quot;font-size:11px;font-family:Calibri;color:#feffff;direction:ltr;letter-spacing:0px;line-height:120%;opacity:1&quot;&gt;CLEAR AD_SPACE&lt;br/&gt;&lt;/font&gt;" style="verticalAlign=middle;align=center;vsdxID=60;fillColor=#5b9bd5;gradientColor=none;shape=stencil(nZBLDoAgDERP0z3SIyjew0SURgSD+Lu9kMZoXLhwN9O+tukAlrNpJg1SzDH4QW/URgNYgZTkjA4UkwJUgGXng+6DX1zLfmoymdXo17xh5zmRJ6Q42BWCfc2oJfdAr+Yv+AP9Cb7OJ3H/2JG1HNGz/84klThPVCc=);strokeColor=#c8c8c8;spacingTop=-1;spacingBottom=-1;spacingLeft=-1;spacingRight=-1;labelBackgroundColor=none;rounded=0;html=1;whiteSpace=wrap;" parent="1" vertex="1">
          <mxGeometry x="640" y="1276" width="100" height="60" as="geometry"/>
        </mxCell>
        <mxCell id="24" style="vsdxID=64;fillColor=#44749f;gradientColor=none;shape=stencil(UzV2Ls5ILEhVNTIoLinKz04tz0wpyVA1dlE1MsrMy0gtyiwBslSNXVWNndPyi1LTi/JL81Ig/IJEkEoQKze/DGRCBUSfAUiHkUElhGcK4bpBVOZk5iGpNEVVikeloQHZpsK0YlWLz1QgA+HFtMycHEgIIcujBwlQCBKcxq4A);strokeColor=#41719c;spacingTop=-1;spacingBottom=-1;spacingLeft=-1;spacingRight=-1;labelBackgroundColor=none;rounded=0;html=1;whiteSpace=wrap;" parent="1" vertex="1">
          <mxGeometry x="621" y="1373" width="144" height="86" as="geometry"/>
        </mxCell>
        <mxCell id="25" value="&lt;font style=&quot;font-size:11px;font-family:Calibri;color:#feffff;direction:ltr;letter-spacing:0px;line-height:120%;opacity:1&quot;&gt;RANDOM.RANDOM&amp;lt;0.5&lt;br/&gt;&lt;/font&gt;" style="text;vsdxID=64;fillColor=none;gradientColor=none;strokeColor=none;spacingTop=-1;spacingBottom=-1;spacingLeft=-1;spacingRight=-1;labelBackgroundColor=none;rounded=0;html=1;whiteSpace=wrap;verticalAlign=middle;align=center;;html=1;" parent="24" vertex="1">
          <mxGeometry x="12" y="10.4" width="120" height="64.8" as="geometry"/>
        </mxCell>
        <mxCell id="26" style="vsdxID=66;fillColor=#44749f;gradientColor=none;shape=stencil(UzV2Ls5ILEhVNTIoLinKz04tz0wpyVA1dlE1MsrMy0gtyiwBslSNXVWNndPyi1LTi/JL81Ig/IJEkEoQKze/DGRCBUSfAUiHkUElhGcK4bpBVOZk5iGpNEVVikeloQHZpsK0YlWLz1QgA+HFtMycHEgIIcujBwlQCBKcxq4A);strokeColor=#41719c;spacingTop=-1;spacingBottom=-1;spacingLeft=-1;spacingRight=-1;labelBackgroundColor=none;rounded=0;html=1;whiteSpace=wrap;" parent="1" vertex="1">
          <mxGeometry x="621" y="1524" width="150" height="96" as="geometry"/>
        </mxCell>
        <mxCell id="27" value="&lt;font style=&quot;font-size:11px;font-family:Calibri;color:#feffff;direction:ltr;letter-spacing:0px;line-height:120%;opacity:1&quot;&gt;OWNED_PRODUCTS SET LENGTH&amp;gt;0&lt;br/&gt;&lt;/font&gt;" style="text;vsdxID=66;fillColor=none;gradientColor=none;strokeColor=none;spacingTop=-1;spacingBottom=-1;spacingLeft=-1;spacingRight=-1;labelBackgroundColor=none;rounded=0;html=1;whiteSpace=wrap;verticalAlign=middle;align=center;;html=1;" parent="26" vertex="1">
          <mxGeometry x="12.5" y="12" width="125" height="72" as="geometry"/>
        </mxCell>
        <mxCell id="28" value="&lt;font style=&quot;font-size:11px;font-family:Calibri;color:#feffff;direction:ltr;letter-spacing:0px;line-height:120%;opacity:1&quot;&gt;RANDOMLY CHOOSE A PRODUCT FROM OWNED_PRODUCTS SET&lt;br/&gt;&lt;/font&gt;" style="verticalAlign=middle;align=center;vsdxID=68;fillColor=#5b9bd5;gradientColor=none;shape=stencil(nZBLDoAgDERP0z3SIyjew0SURgSD+Lu9kMZoXLhwN9O+tukAlrNpJg1SzDH4QW/URgNYgZTkjA4UkwJUgGXng+6DX1zLfmoymdXo17xh5zmRJ6Q42BWCfc2oJfdAr+Yv+AP9Cb7OJ3H/2JG1HNGz/84klThPVCc=);strokeColor=#c8c8c8;spacingTop=-1;spacingBottom=-1;spacingLeft=-1;spacingRight=-1;labelBackgroundColor=none;rounded=0;html=1;whiteSpace=wrap;" parent="1" vertex="1">
          <mxGeometry x="640" y="1658" width="100" height="76" as="geometry"/>
        </mxCell>
        <mxCell id="29" style="vsdxID=70;fillColor=#44749f;gradientColor=none;shape=stencil(UzV2Ls5ILEhVNTIoLinKz04tz0wpyVA1dlE1MsrMy0gtyiwBslSNXVWNndPyi1LTi/JL81Ig/IJEkEoQKze/DGRCBUSfAUiHkUElhGcK4bpBVOZk5iGpNEVVikeloQHZpsK0YlWLz1QgA+HFtMycHEgIIcujBwlQCBKcxq4A);strokeColor=#41719c;spacingTop=-1;spacingBottom=-1;spacingLeft=-1;spacingRight=-1;labelBackgroundColor=none;rounded=0;html=1;whiteSpace=wrap;" parent="1" vertex="1">
          <mxGeometry x="630" y="1760" width="120" height="76" as="geometry"/>
        </mxCell>
        <mxCell id="30" value="&lt;font style=&quot;font-size:11px;font-family:Calibri;color:#feffff;direction:ltr;letter-spacing:0px;line-height:120%;opacity:1&quot;&gt;USER_TOLERANCE&amp;lt;PRODUCT_QUALITY&lt;br/&gt;&lt;/font&gt;" style="text;vsdxID=70;fillColor=none;gradientColor=none;strokeColor=none;spacingTop=-1;spacingBottom=-1;spacingLeft=-1;spacingRight=-1;labelBackgroundColor=none;rounded=0;html=1;whiteSpace=wrap;verticalAlign=middle;align=center;;html=1;" parent="29" vertex="1">
          <mxGeometry x="10" y="8.8" width="100" height="57.6" as="geometry"/>
        </mxCell>
        <mxCell id="31" value="&lt;font style=&quot;font-size:11px;font-family:Calibri;color:#feffff;direction:ltr;letter-spacing:0px;line-height:120%;opacity:1&quot;&gt;ASSIGN NEGATIVE SENTIMENT &lt;br/&gt;&lt;/font&gt;" style="verticalAlign=middle;align=center;vsdxID=72;fillColor=#5b9bd5;gradientColor=none;shape=stencil(nZBLDoAgDERP0z3SIyjew0SURgSD+Lu9kMZoXLhwN9O+tukAlrNpJg1SzDH4QW/URgNYgZTkjA4UkwJUgGXng+6DX1zLfmoymdXo17xh5zmRJ6Q42BWCfc2oJfdAr+Yv+AP9Cb7OJ3H/2JG1HNGz/84klThPVCc=);strokeColor=#c8c8c8;spacingTop=-1;spacingBottom=-1;spacingLeft=-1;spacingRight=-1;labelBackgroundColor=none;rounded=0;html=1;whiteSpace=wrap;" parent="1" vertex="1">
          <mxGeometry x="640" y="1896" width="100" height="60" as="geometry"/>
        </mxCell>
        <mxCell id="32" value="&lt;font style=&quot;font-size:11px;font-family:Calibri;color:#feffff;direction:ltr;letter-spacing:0px;line-height:120%;opacity:1&quot;&gt;ASSIGN POSITIVE SENTIMENT&lt;/font&gt;&lt;font style=&quot;font-size:11px;font-family:Themed;color:#feffff;direction:ltr;letter-spacing:0px;line-height:120%;opacity:1&quot;&gt;&lt;br/&gt;&lt;/font&gt;" style="verticalAlign=middle;align=center;vsdxID=74;fillColor=#5b9bd5;gradientColor=none;shape=stencil(nZBLDoAgDERP0z3SIyjew0SURgSD+Lu9kMZoXLhwN9O+tukAlrNpJg1SzDH4QW/URgNYgZTkjA4UkwJUgGXng+6DX1zLfmoymdXo17xh5zmRJ6Q42BWCfc2oJfdAr+Yv+AP9Cb7OJ3H/2JG1HNGz/84klThPVCc=);strokeColor=#c8c8c8;spacingTop=-1;spacingBottom=-1;spacingLeft=-1;spacingRight=-1;labelBackgroundColor=none;rounded=0;html=1;whiteSpace=wrap;" parent="1" vertex="1">
          <mxGeometry x="790" y="1768" width="100" height="60" as="geometry"/>
        </mxCell>
        <mxCell id="33" value="&lt;font style=&quot;font-size:11px;font-family:Calibri;color:#feffff;direction:ltr;letter-spacing:0px;line-height:120%;opacity:1&quot;&gt;RELEASE LOCK&lt;br/&gt;&lt;/font&gt;" style="verticalAlign=middle;align=center;vsdxID=77;fillColor=#5b9bd5;gradientColor=none;shape=stencil(nZBLDoAgDERP0z3SIyjew0SURgSD+Lu9kMZoXLhwN9O+tukAlrNpJg1SzDH4QW/URgNYgZTkjA4UkwJUgGXng+6DX1zLfmoymdXo17xh5zmRJ6Q42BWCfc2oJfdAr+Yv+AP9Cb7OJ3H/2JG1HNGz/84klThPVCc=);strokeColor=#c8c8c8;spacingTop=-1;spacingBottom=-1;spacingLeft=-1;spacingRight=-1;labelBackgroundColor=none;rounded=0;html=1;whiteSpace=wrap;" parent="1" vertex="1">
          <mxGeometry x="616" y="2015" width="124" height="60" as="geometry"/>
        </mxCell>
        <mxCell id="34" value="&lt;font style=&quot;font-size:11px;font-family:Calibri;color:#feffff;direction:ltr;letter-spacing:0px;line-height:120%;opacity:1&quot;&gt;FOR EACH PRODUCT IN AD_SPACE &lt;/font&gt;&lt;font style=&quot;font-size:11px;font-family:Themed;color:#feffff;direction:ltr;letter-spacing:0px;line-height:120%;opacity:1&quot;&gt;&lt;br/&gt;&lt;/font&gt;" style="verticalAlign=middle;align=center;vsdxID=88;fillColor=#5b9bd5;gradientColor=none;shape=stencil(nZBLDoAgDERP0z3SIyjew0SURgSD+Lu9kMZoXLhwN9O+tukAlrNpJg1SzDH4QW/URgNYgZTkjA4UkwJUgGXng+6DX1zLfmoymdXo17xh5zmRJ6Q42BWCfc2oJfdAr+Yv+AP9Cb7OJ3H/2JG1HNGz/84klThPVCc=);strokeColor=#c8c8c8;spacingTop=-1;spacingBottom=-1;spacingLeft=-1;spacingRight=-1;labelBackgroundColor=none;rounded=0;html=1;whiteSpace=wrap;" parent="1" vertex="1">
          <mxGeometry x="640" y="350" width="100" height="60" as="geometry"/>
        </mxCell>
        <mxCell id="35" value="&lt;font style=&quot;font-size:11px;font-family:Calibri;color:#feffff;direction:ltr;letter-spacing:0px;line-height:120%;opacity:1&quot;&gt;REGISTER USER WITH GOOGLE ADS&lt;br/&gt;&lt;/font&gt;" style="verticalAlign=middle;align=center;vsdxID=98;fillColor=#5b9bd5;gradientColor=none;shape=stencil(nZBLDoAgDERP0z3SIyjew0SURgSD+Lu9kMZoXLhwN9O+tukAlrNpJg1SzDH4QW/URgNYgZTkjA4UkwJUgGXng+6DX1zLfmoymdXo17xh5zmRJ6Q42BWCfc2oJfdAr+Yv+AP9Cb7OJ3H/2JG1HNGz/84klThPVCc=);strokeColor=#c8c8c8;spacingTop=-1;spacingBottom=-1;spacingLeft=-1;spacingRight=-1;labelBackgroundColor=none;rounded=0;html=1;whiteSpace=wrap;" parent="1" vertex="1">
          <mxGeometry x="440" y="184" width="100" height="60" as="geometry"/>
        </mxCell>
        <mxCell id="36" value="&lt;font style=&quot;font-size:11px;font-family:Calibri;color:#feffff;direction:ltr;letter-spacing:0px;line-height:120%;opacity:1&quot;&gt;POST SENTIMENT ON TWITTER&lt;br/&gt;&lt;/font&gt;" style="verticalAlign=middle;align=center;vsdxID=100;fillColor=#5b9bd5;gradientColor=none;shape=stencil(nZBLDoAgDERP0z3SIyjew0SURgSD+Lu9kMZoXLhwN9O+tukAlrNpJg1SzDH4QW/URgNYgZTkjA4UkwJUgGXng+6DX1zLfmoymdXo17xh5zmRJ6Q42BWCfc2oJfdAr+Yv+AP9Cb7OJ3H/2JG1HNGz/84klThPVCc=);strokeColor=#c8c8c8;spacingTop=-1;spacingBottom=-1;spacingLeft=-1;spacingRight=-1;labelBackgroundColor=none;rounded=0;html=1;whiteSpace=wrap;" parent="1" vertex="1">
          <mxGeometry x="790" y="1896" width="100" height="60" as="geometry"/>
        </mxCell>
        <mxCell id="2" value="Connector" parent="0"/>
        <mxCell id="37" style="vsdxID=102;edgeStyle=none;startArrow=none;endArrow=block;startSize=5;endSize=5;strokeColor=#5b9bd5;spacingTop=0;spacingBottom=0;spacingLeft=0;spacingRight=0;verticalAlign=middle;html=1;labelBackgroundColor=#ffffff;rounded=0;exitX=0;exitY=0.5;exitDx=0;exitDy=0;exitPerimeter=0;entryX=1;entryY=0.5;entryDx=0;entryDy=0;entryPerimeter=0;" parent="2" source="33" target="7" edge="1">
          <mxGeometry relative="1" as="geometry">
            <mxPoint as="offset"/>
            <Array as="points"/>
          </mxGeometry>
        </mxCell>
        <mxCell id="38" style="vsdxID=29;edgeStyle=none;startArrow=none;endArrow=block;startSize=5;endSize=5;strokeColor=#5b9bd5;spacingTop=0;spacingBottom=0;spacingLeft=0;spacingRight=0;verticalAlign=middle;html=1;labelBackgroundColor=#ffffff;rounded=0;exitX=0.5;exitY=1;exitDx=0;exitDy=0;exitPerimeter=0;entryX=0.5;entryY=0;entryDx=0;entryDy=0;entryPerimeter=0;" parent="2" source="10" target="7" edge="1">
          <mxGeometry relative="1" as="geometry">
            <mxPoint x="10" y="-1" as="offset"/>
            <Array as="points"/>
          </mxGeometry>
        </mxCell>
        <mxCell id="39" value="&lt;font style=&quot;font-size:11px;font-family:Calibri;color:#44749f;direction:ltr;letter-spacing:0px;line-height:120%;opacity:1&quot;&gt;Yes&lt;br/&gt;&lt;/font&gt;" style="vsdxID=28;edgeStyle=none;startArrow=none;endArrow=block;startSize=5;endSize=5;strokeColor=#5b9bd5;spacingTop=0;spacingBottom=0;spacingLeft=0;spacingRight=0;verticalAlign=middle;html=1;labelBackgroundColor=#ffffff;rounded=0;align=center;exitX=0.5;exitY=1;exitDx=0;exitDy=0;exitPerimeter=0;entryX=0.5;entryY=0;entryDx=0;entryDy=0;entryPerimeter=0;" parent="2" source="3" target="10" edge="1">
          <mxGeometry relative="1" as="geometry">
            <mxPoint x="10" as="offset"/>
            <Array as="points"/>
          </mxGeometry>
        </mxCell>
        <mxCell id="40" style="vsdxID=6;edgeStyle=none;startArrow=none;endArrow=block;startSize=5;endSize=5;strokeColor=#5b9bd5;spacingTop=0;spacingBottom=0;spacingLeft=0;spacingRight=0;verticalAlign=middle;html=1;labelBackgroundColor=#ffffff;rounded=0;exitX=0.5;exitY=1;exitDx=0;exitDy=0;exitPerimeter=0;entryX=0.5;entryY=0;entryDx=0;entryDy=0;entryPerimeter=0;" parent="2" source="6" target="15" edge="1">
          <mxGeometry relative="1" as="geometry">
            <mxPoint x="10" as="offset"/>
            <Array as="points"/>
          </mxGeometry>
        </mxCell>
        <mxCell id="41" style="vsdxID=5;edgeStyle=none;startArrow=none;endArrow=block;startSize=5;endSize=5;strokeColor=#5b9bd5;spacingTop=0;spacingBottom=0;spacingLeft=0;spacingRight=0;verticalAlign=middle;html=1;labelBackgroundColor=#ffffff;rounded=0;exitX=0.5;exitY=1;exitDx=0;exitDy=0;exitPerimeter=0;entryX=0.5;entryY=0;entryDx=0;entryDy=0;entryPerimeter=0;" parent="2" source="5" target="35" edge="1">
          <mxGeometry relative="1" as="geometry">
            <mxPoint x="10" as="offset"/>
            <Array as="points"/>
          </mxGeometry>
        </mxCell>
        <mxCell id="42" value="&lt;font style=&quot;font-size:11px;font-family:Calibri;color:#44749f;direction:ltr;letter-spacing:0px;line-height:120%;opacity:1&quot;&gt;NO&lt;br/&gt;&lt;/font&gt;" style="vsdxID=30;edgeStyle=none;startArrow=none;endArrow=block;startSize=5;endSize=5;strokeColor=#5b9bd5;spacingTop=0;spacingBottom=0;spacingLeft=0;spacingRight=0;verticalAlign=middle;html=1;labelBackgroundColor=#ffffff;rounded=0;align=center;exitX=1;exitY=0.5;exitDx=0;exitDy=0;exitPerimeter=0;entryX=0;entryY=0.5;entryDx=0;entryDy=0;entryPerimeter=0;" parent="2" source="3" target="9" edge="1">
          <mxGeometry relative="1" as="geometry">
            <mxPoint as="offset"/>
            <Array as="points"/>
          </mxGeometry>
        </mxCell>
        <mxCell id="43" value="" style="vsdxID=36;edgeStyle=none;startArrow=none;endArrow=block;startSize=5;endSize=5;strokeColor=#5b9bd5;spacingTop=0;spacingBottom=0;spacingLeft=0;spacingRight=0;verticalAlign=middle;html=1;labelBackgroundColor=#ffffff;rounded=0;align=center;exitX=0.5;exitY=1;exitDx=0;exitDy=0;exitPerimeter=0;entryX=0.5;entryY=0;entryDx=0;entryDy=0;entryPerimeter=0;" parent="2" source="8" target="11" edge="1">
          <mxGeometry relative="1" as="geometry">
            <mxPoint x="10" y="-1" as="offset"/>
            <Array as="points"/>
          </mxGeometry>
        </mxCell>
        <mxCell id="44" value="" style="vsdxID=38;edgeStyle=none;startArrow=none;endArrow=block;startSize=5;endSize=5;strokeColor=#5b9bd5;spacingTop=0;spacingBottom=0;spacingLeft=0;spacingRight=0;verticalAlign=middle;html=1;labelBackgroundColor=#ffffff;rounded=0;align=center;exitX=0.5;exitY=1;exitDx=0;exitDy=0;exitPerimeter=0;entryX=0.5;entryY=0;entryDx=0;entryDy=0;entryPerimeter=0;" parent="2" source="9" target="34" edge="1">
          <mxGeometry relative="1" as="geometry">
            <mxPoint x="10" as="offset"/>
            <Array as="points"/>
          </mxGeometry>
        </mxCell>
        <mxCell id="45" value="&lt;font style=&quot;font-size:11px;font-family:Calibri;color:#44749f;direction:ltr;letter-spacing:0px;line-height:120%;opacity:1&quot;&gt;YES&lt;br/&gt;&lt;/font&gt;" style="vsdxID=40;edgeStyle=none;startArrow=none;endArrow=block;startSize=5;endSize=5;strokeColor=#5b9bd5;spacingTop=0;spacingBottom=0;spacingLeft=0;spacingRight=0;verticalAlign=middle;html=1;labelBackgroundColor=#ffffff;rounded=0;align=center;exitX=0.5;exitY=1;exitDx=0;exitDy=0;exitPerimeter=0;entryX=0.5;entryY=0;entryDx=0;entryDy=0;entryPerimeter=0;" parent="2" source="15" target="8" edge="1">
          <mxGeometry relative="1" as="geometry">
            <mxPoint x="10" y="-1" as="offset"/>
            <Array as="points"/>
          </mxGeometry>
        </mxCell>
        <mxCell id="46" value="&lt;font style=&quot;font-size:11px;font-family:Calibri;color:#44749f;direction:ltr;letter-spacing:0px;line-height:120%;opacity:1&quot;&gt;NO&lt;br/&gt;&lt;/font&gt;" style="vsdxID=44;edgeStyle=none;startArrow=none;endArrow=block;startSize=5;endSize=5;strokeColor=#5b9bd5;spacingTop=0;spacingBottom=0;spacingLeft=0;spacingRight=0;verticalAlign=middle;html=1;labelBackgroundColor=#ffffff;rounded=0;align=center;exitX=1;exitY=0.5;exitDx=0;exitDy=0;exitPerimeter=0;entryX=0;entryY=0.5;entryDx=0;entryDy=0;entryPerimeter=0;" parent="2" source="15" target="17" edge="1">
          <mxGeometry relative="1" as="geometry">
            <mxPoint as="offset"/>
            <Array as="points"/>
          </mxGeometry>
        </mxCell>
        <mxCell id="47" style="vsdxID=45;edgeStyle=none;startArrow=none;endArrow=block;startSize=5;endSize=5;strokeColor=#5b9bd5;spacingTop=0;spacingBottom=0;spacingLeft=0;spacingRight=0;verticalAlign=middle;html=1;labelBackgroundColor=#ffffff;rounded=0;exitX=0.5;exitY=1;exitDx=0;exitDy=0;exitPerimeter=0;entryX=1;entryY=0.5;entryDx=0;entryDy=0;entryPerimeter=0;" parent="2" source="17" target="11" edge="1">
          <mxGeometry relative="1" as="geometry">
            <mxPoint y="-1" as="offset"/>
            <Array as="points">
              <mxPoint x="850" y="792.4"/>
            </Array>
          </mxGeometry>
        </mxCell>
        <mxCell id="48" value="&lt;font style=&quot;font-size:11px;font-family:Calibri;color:#44749f;direction:ltr;letter-spacing:0px;line-height:120%;opacity:1&quot;&gt;YES&lt;br/&gt;&lt;/font&gt;" style="vsdxID=46;edgeStyle=none;startArrow=none;endArrow=block;startSize=5;endSize=5;strokeColor=#5b9bd5;spacingTop=0;spacingBottom=0;spacingLeft=0;spacingRight=0;verticalAlign=middle;html=1;labelBackgroundColor=#ffffff;rounded=0;align=center;exitX=0.5;exitY=1;exitDx=0;exitDy=0;exitPerimeter=0;entryX=0.5027932960893855;entryY=0;entryDx=0;entryDy=0;entryPerimeter=0;" parent="2" source="11" target="13" edge="1">
          <mxGeometry relative="1" as="geometry">
            <mxPoint x="10" y="-1" as="offset"/>
            <Array as="points"/>
          </mxGeometry>
        </mxCell>
        <mxCell id="49" value="&lt;font style=&quot;font-size:11px;font-family:Calibri;color:#44749f;direction:ltr;letter-spacing:0px;line-height:120%;opacity:1&quot;&gt;NO&lt;br/&gt;&lt;/font&gt;" style="vsdxID=48;edgeStyle=none;startArrow=none;endArrow=block;startSize=5;endSize=5;strokeColor=#5b9bd5;spacingTop=0;spacingBottom=0;spacingLeft=0;spacingRight=0;verticalAlign=middle;html=1;labelBackgroundColor=#ffffff;rounded=0;align=center;exitX=0.5027932960893855;exitY=1.0129870129870129;exitDx=0;exitDy=0;exitPerimeter=0;entryX=0.5;entryY=0;entryDx=0;entryDy=0;entryPerimeter=0;" parent="2" source="13" target="18" edge="1">
          <mxGeometry relative="1" as="geometry">
            <mxPoint x="10" y="-1" as="offset"/>
            <Array as="points"/>
          </mxGeometry>
        </mxCell>
        <mxCell id="50" value="&lt;font style=&quot;font-size:11px;font-family:Calibri;color:#44749f;direction:ltr;letter-spacing:0px;line-height:120%;opacity:1&quot;&gt;YES&lt;br/&gt;&lt;/font&gt;" style="vsdxID=50;edgeStyle=none;startArrow=none;endArrow=block;startSize=5;endSize=5;strokeColor=#5b9bd5;spacingTop=0;spacingBottom=0;spacingLeft=0;spacingRight=0;verticalAlign=middle;html=1;labelBackgroundColor=#ffffff;rounded=0;align=center;exitX=0.5;exitY=1;exitDx=0;exitDy=0;exitPerimeter=0;entryX=0.5;entryY=0;entryDx=0;entryDy=0;entryPerimeter=0;" parent="2" source="18" target="20" edge="1">
          <mxGeometry relative="1" as="geometry">
            <mxPoint x="10" y="-1" as="offset"/>
            <Array as="points"/>
          </mxGeometry>
        </mxCell>
        <mxCell id="51" value="&lt;font style=&quot;font-size:11px;font-family:Calibri;color:#44749f;direction:ltr;letter-spacing:0px;line-height:120%;opacity:1&quot;&gt;NO&lt;br/&gt;&lt;/font&gt;" style="vsdxID=57;edgeStyle=none;startArrow=none;endArrow=block;startSize=5;endSize=5;strokeColor=#5b9bd5;spacingTop=0;spacingBottom=0;spacingLeft=0;spacingRight=0;verticalAlign=middle;html=1;labelBackgroundColor=#ffffff;rounded=0;align=center;exitX=0;exitY=0.5054945054945055;exitDx=0;exitDy=0;exitPerimeter=0;entryX=0.5;entryY=0;entryDx=0;entryDy=0;entryPerimeter=0;" parent="2" source="18" target="23" edge="1">
          <mxGeometry relative="1" as="geometry">
            <mxPoint y="-1" as="offset"/>
            <Array as="points">
              <mxPoint x="599" y="1073"/>
              <mxPoint x="599" y="1261.43"/>
              <mxPoint x="690" y="1261.43"/>
            </Array>
          </mxGeometry>
        </mxCell>
        <mxCell id="52" style="vsdxID=61;edgeStyle=none;startArrow=none;endArrow=block;startSize=5;endSize=5;strokeColor=#5b9bd5;spacingTop=0;spacingBottom=0;spacingLeft=0;spacingRight=0;verticalAlign=middle;html=1;labelBackgroundColor=#ffffff;rounded=0;exitX=0.5;exitY=1;exitDx=0;exitDy=0;exitPerimeter=0;entryX=0.5;entryY=0;entryDx=0;entryDy=0;entryPerimeter=0;" parent="2" source="20" target="23" edge="1">
          <mxGeometry relative="1" as="geometry">
            <mxPoint x="10" as="offset"/>
            <Array as="points"/>
          </mxGeometry>
        </mxCell>
        <mxCell id="53" style="vsdxID=65;edgeStyle=none;startArrow=none;endArrow=block;startSize=5;endSize=5;strokeColor=#5b9bd5;spacingTop=0;spacingBottom=0;spacingLeft=0;spacingRight=0;verticalAlign=middle;html=1;labelBackgroundColor=#ffffff;rounded=0;exitX=0.5;exitY=1;exitDx=0;exitDy=0;exitPerimeter=0;entryX=0.5;entryY=0;entryDx=0;entryDy=0;entryPerimeter=0;" parent="2" source="23" target="24" edge="1">
          <mxGeometry relative="1" as="geometry">
            <mxPoint x="8" y="-1" as="offset"/>
            <Array as="points">
              <mxPoint x="690" y="1351"/>
              <mxPoint x="693" y="1351"/>
            </Array>
          </mxGeometry>
        </mxCell>
        <mxCell id="54" value="&lt;font style=&quot;font-size:11px;font-family:Calibri;color:#44749f;direction:ltr;letter-spacing:0px;line-height:120%;opacity:1&quot;&gt;YES&lt;br/&gt;&lt;/font&gt;" style="vsdxID=67;edgeStyle=none;startArrow=none;endArrow=block;startSize=5;endSize=5;strokeColor=#5b9bd5;spacingTop=0;spacingBottom=0;spacingLeft=0;spacingRight=0;verticalAlign=middle;html=1;labelBackgroundColor=#ffffff;rounded=0;align=center;exitX=0.5;exitY=1;exitDx=0;exitDy=0;exitPerimeter=0;entryX=0.5;entryY=0;entryDx=0;entryDy=0;entryPerimeter=0;" parent="2" source="24" target="26" edge="1">
          <mxGeometry relative="1" as="geometry">
            <mxPoint x="8" y="-1" as="offset"/>
            <Array as="points">
              <mxPoint x="693" y="1489"/>
              <mxPoint x="696" y="1489"/>
            </Array>
          </mxGeometry>
        </mxCell>
        <mxCell id="55" value="&lt;font style=&quot;font-size:11px;font-family:Calibri;color:#44749f;direction:ltr;letter-spacing:0px;line-height:120%;opacity:1&quot;&gt;YES&lt;br/&gt;&lt;/font&gt;" style="vsdxID=69;edgeStyle=none;startArrow=none;endArrow=block;startSize=5;endSize=5;strokeColor=#5b9bd5;spacingTop=0;spacingBottom=0;spacingLeft=0;spacingRight=0;verticalAlign=middle;html=1;labelBackgroundColor=#ffffff;rounded=0;align=center;exitX=0.5;exitY=1;exitDx=0;exitDy=0;exitPerimeter=0;entryX=0.5;entryY=0;entryDx=0;entryDy=0;entryPerimeter=0;" parent="2" source="26" target="28" edge="1">
          <mxGeometry relative="1" as="geometry">
            <mxPoint x="-7" as="offset"/>
            <Array as="points">
              <mxPoint x="696" y="1635"/>
              <mxPoint x="690" y="1635"/>
            </Array>
          </mxGeometry>
        </mxCell>
        <mxCell id="56" style="vsdxID=71;edgeStyle=none;startArrow=none;endArrow=block;startSize=5;endSize=5;strokeColor=#5b9bd5;spacingTop=0;spacingBottom=0;spacingLeft=0;spacingRight=0;verticalAlign=middle;html=1;labelBackgroundColor=#ffffff;rounded=0;exitX=0.5;exitY=1;exitDx=0;exitDy=0;exitPerimeter=0;entryX=0.5;entryY=0;entryDx=0;entryDy=0;entryPerimeter=0;" parent="2" source="28" target="29" edge="1">
          <mxGeometry relative="1" as="geometry">
            <mxPoint x="10" y="-1" as="offset"/>
            <Array as="points"/>
          </mxGeometry>
        </mxCell>
        <mxCell id="57" value="&lt;font style=&quot;font-size:11px;font-family:Calibri;color:#44749f;direction:ltr;letter-spacing:0px;line-height:120%;opacity:1&quot;&gt;NO&lt;br/&gt;&lt;/font&gt;" style="vsdxID=73;edgeStyle=none;startArrow=none;endArrow=block;startSize=5;endSize=5;strokeColor=#5b9bd5;spacingTop=0;spacingBottom=0;spacingLeft=0;spacingRight=0;verticalAlign=middle;html=1;labelBackgroundColor=#ffffff;rounded=0;align=center;exitX=0.5;exitY=1;exitDx=0;exitDy=0;exitPerimeter=0;entryX=0.5;entryY=0;entryDx=0;entryDy=0;entryPerimeter=0;" parent="2" source="29" target="31" edge="1">
          <mxGeometry relative="1" as="geometry">
            <mxPoint x="10" as="offset"/>
            <Array as="points"/>
          </mxGeometry>
        </mxCell>
        <mxCell id="58" value="&lt;font style=&quot;font-size:11px;font-family:Calibri;color:#44749f;direction:ltr;letter-spacing:0px;line-height:120%;opacity:1&quot;&gt;YES&lt;br/&gt;&lt;/font&gt;" style="vsdxID=75;edgeStyle=none;startArrow=none;endArrow=block;startSize=5;endSize=5;strokeColor=#5b9bd5;spacingTop=0;spacingBottom=0;spacingLeft=0;spacingRight=0;verticalAlign=middle;html=1;labelBackgroundColor=#ffffff;rounded=0;align=center;exitX=1;exitY=0.5;exitDx=0;exitDy=0;exitPerimeter=0;entryX=0;entryY=0.5;entryDx=0;entryDy=0;entryPerimeter=0;" parent="2" source="29" target="32" edge="1">
          <mxGeometry relative="1" as="geometry">
            <mxPoint as="offset"/>
            <Array as="points"/>
          </mxGeometry>
        </mxCell>
        <mxCell id="59" style="vsdxID=78;edgeStyle=none;startArrow=none;endArrow=block;startSize=5;endSize=5;strokeColor=#5b9bd5;spacingTop=0;spacingBottom=0;spacingLeft=0;spacingRight=0;verticalAlign=middle;html=1;labelBackgroundColor=#ffffff;rounded=0;exitX=0.5;exitY=1;exitDx=0;exitDy=0;exitPerimeter=0;entryX=0.5;entryY=0;entryDx=0;entryDy=0;entryPerimeter=0;" parent="2" source="32" target="36" edge="1">
          <mxGeometry relative="1" as="geometry">
            <mxPoint x="10" as="offset"/>
            <Array as="points"/>
          </mxGeometry>
        </mxCell>
        <mxCell id="60" value="" style="vsdxID=89;edgeStyle=none;startArrow=none;endArrow=block;startSize=5;endSize=5;strokeColor=#5b9bd5;spacingTop=0;spacingBottom=0;spacingLeft=0;spacingRight=0;verticalAlign=middle;html=1;labelBackgroundColor=#ffffff;rounded=0;align=center;exitX=0.5;exitY=1;exitDx=0;exitDy=0;exitPerimeter=0;entryX=0.5;entryY=0;entryDx=0;entryDy=0;entryPerimeter=0;" parent="2" source="34" target="6" edge="1">
          <mxGeometry relative="1" as="geometry">
            <mxPoint x="10" as="offset"/>
            <Array as="points"/>
          </mxGeometry>
        </mxCell>
        <mxCell id="61" value="&lt;font style=&quot;font-size:11px;font-family:Calibri;color:#44749f;direction:ltr;letter-spacing:0px;line-height:120%;opacity:1&quot;&gt;NO&lt;br/&gt;&lt;/font&gt;" style="vsdxID=97;edgeStyle=none;startArrow=none;endArrow=block;startSize=5;endSize=5;strokeColor=#5b9bd5;spacingTop=0;spacingBottom=0;spacingLeft=0;spacingRight=0;verticalAlign=middle;html=1;labelBackgroundColor=#ffffff;rounded=0;align=center;exitX=1;exitY=0.5;exitDx=0;exitDy=0;exitPerimeter=0;entryX=1;entryY=0.5;entryDx=0;entryDy=0;entryPerimeter=0;" parent="2" source="26" target="33" edge="1">
          <mxGeometry relative="1" as="geometry">
            <mxPoint as="offset"/>
            <Array as="points">
              <mxPoint x="936" y="1572"/>
              <mxPoint x="936" y="2045.23"/>
            </Array>
          </mxGeometry>
        </mxCell>
        <mxCell id="62" value="" style="vsdxID=99;edgeStyle=none;startArrow=none;endArrow=block;startSize=5;endSize=5;strokeColor=#5b9bd5;spacingTop=0;spacingBottom=0;spacingLeft=0;spacingRight=0;verticalAlign=middle;html=1;labelBackgroundColor=#ffffff;rounded=0;align=center;exitX=0.5;exitY=1;exitDx=0;exitDy=0;exitPerimeter=0;entryX=0.5;entryY=0;entryDx=0;entryDy=0;entryPerimeter=0;" parent="2" source="35" target="3" edge="1">
          <mxGeometry relative="1" as="geometry">
            <mxPoint x="10" as="offset"/>
            <Array as="points"/>
          </mxGeometry>
        </mxCell>
        <mxCell id="63" value="" style="vsdxID=101;edgeStyle=none;startArrow=none;endArrow=block;startSize=5;endSize=5;strokeColor=#5b9bd5;spacingTop=0;spacingBottom=0;spacingLeft=0;spacingRight=0;verticalAlign=middle;html=1;labelBackgroundColor=#ffffff;rounded=0;align=center;exitX=0.5;exitY=1;exitDx=0;exitDy=0;exitPerimeter=0;entryX=0.5;entryY=0;entryDx=0;entryDy=0;entryPerimeter=0;" parent="2" source="36" target="33" edge="1">
          <mxGeometry relative="1" as="geometry">
            <mxPoint x="-1" as="offset"/>
            <Array as="points">
              <mxPoint x="840" y="1984.37"/>
              <mxPoint x="678" y="1984.37"/>
            </Array>
          </mxGeometry>
        </mxCell>
        <mxCell id="64" value="&lt;font style=&quot;font-size:11px;font-family:Calibri;color:#44749f;direction:ltr;letter-spacing:0px;line-height:120%;opacity:1&quot;&gt;YES&lt;br/&gt;&lt;/font&gt;" style="vsdxID=52;edgeStyle=none;startArrow=none;endArrow=block;startSize=5;endSize=5;strokeColor=#5b9bd5;spacingTop=0;spacingBottom=0;spacingLeft=0;spacingRight=0;verticalAlign=middle;html=1;labelBackgroundColor=#ffffff;rounded=0;align=center;exitX=1;exitY=0.5064935064935064;exitDx=0;exitDy=0;exitPerimeter=0;entryX=0.5;entryY=0;entryDx=0;entryDy=0;entryPerimeter=0;" parent="2" source="13" target="21" edge="1">
          <mxGeometry relative="1" as="geometry">
            <mxPoint as="offset"/>
            <Array as="points">
              <mxPoint x="868.5" y="925"/>
            </Array>
          </mxGeometry>
        </mxCell>
        <mxCell id="65" value="&lt;font style=&quot;font-size:11px;font-family:Calibri;color:#44749f;direction:ltr;letter-spacing:0px;line-height:120%;opacity:1&quot;&gt;YES&lt;br/&gt;&lt;/font&gt;" style="vsdxID=55;edgeStyle=none;startArrow=none;endArrow=block;startSize=5;endSize=5;strokeColor=#5b9bd5;spacingTop=0;spacingBottom=0;spacingLeft=0;spacingRight=0;verticalAlign=middle;html=1;labelBackgroundColor=#ffffff;rounded=0;align=center;exitX=0;exitY=0.5;exitDx=0;exitDy=0;exitPerimeter=0;entryX=1;entryY=0.5;entryDx=0;entryDy=0;entryPerimeter=0;" parent="2" source="21" target="20" edge="1">
          <mxGeometry relative="1" as="geometry">
            <mxPoint y="-1" as="offset"/>
            <Array as="points">
              <mxPoint x="777" y="1072"/>
              <mxPoint x="777" y="1209.2"/>
            </Array>
          </mxGeometry>
        </mxCell>
        <mxCell id="66" value="&lt;font style=&quot;font-size:11px;font-family:Calibri;color:#44749f;direction:ltr;letter-spacing:0px;line-height:120%;opacity:1&quot;&gt;NO&lt;br/&gt;&lt;/font&gt;" style="vsdxID=59;edgeStyle=none;startArrow=none;endArrow=block;startSize=5;endSize=5;strokeColor=#5b9bd5;spacingTop=0;spacingBottom=0;spacingLeft=0;spacingRight=0;verticalAlign=middle;html=1;labelBackgroundColor=#ffffff;rounded=0;align=center;exitX=0.5;exitY=1;exitDx=0;exitDy=0;exitPerimeter=0;entryX=1;entryY=0.5;entryDx=0;entryDy=0;entryPerimeter=0;" parent="2" source="21" target="23" edge="1">
          <mxGeometry relative="1" as="geometry">
            <mxPoint as="offset"/>
            <Array as="points">
              <mxPoint x="869" y="1305.83"/>
            </Array>
          </mxGeometry>
        </mxCell>
        <mxCell id="67" style="vsdxID=80;edgeStyle=none;startArrow=none;endArrow=block;startSize=5;endSize=5;strokeColor=#5b9bd5;spacingTop=0;spacingBottom=0;spacingLeft=0;spacingRight=0;verticalAlign=middle;html=1;labelBackgroundColor=#ffffff;rounded=0;exitX=1;exitY=0.5;exitDx=0;exitDy=0;exitPerimeter=0;entryX=0;entryY=0.5;entryDx=0;entryDy=0;entryPerimeter=0;" parent="2" source="31" target="36" edge="1">
          <mxGeometry relative="1" as="geometry">
            <mxPoint as="offset"/>
            <Array as="points"/>
          </mxGeometry>
        </mxCell>
        <mxCell id="68" value="&lt;font style=&quot;font-size:11px;font-family:Calibri;color:#44749f;direction:ltr;letter-spacing:0px;line-height:120%;opacity:1&quot;&gt;NO&lt;br/&gt;&lt;/font&gt;" style="vsdxID=91;edgeStyle=none;startArrow=none;endArrow=block;startSize=5;endSize=5;strokeColor=#5b9bd5;spacingTop=0;spacingBottom=0;spacingLeft=0;spacingRight=0;verticalAlign=middle;html=1;labelBackgroundColor=#ffffff;rounded=0;align=center;exitX=0;exitY=0.5;exitDx=0;exitDy=0;exitPerimeter=0;entryX=0;entryY=0.5;entryDx=0;entryDy=0;entryPerimeter=0;" parent="2" source="11" target="23" edge="1">
          <mxGeometry relative="1" as="geometry">
            <mxPoint as="offset"/>
            <Array as="points">
              <mxPoint x="583" y="793"/>
              <mxPoint x="583" y="1306.25"/>
            </Array>
          </mxGeometry>
        </mxCell>
        <mxCell id="69" value="&lt;font style=&quot;font-size:11px;font-family:Calibri;color:#44749f;direction:ltr;letter-spacing:0px;line-height:120%;opacity:1&quot;&gt;NO&lt;br/&gt;&lt;/font&gt;" style="vsdxID=95;edgeStyle=none;startArrow=none;endArrow=block;startSize=5;endSize=5;strokeColor=#5b9bd5;spacingTop=0;spacingBottom=0;spacingLeft=0;spacingRight=0;verticalAlign=middle;html=1;labelBackgroundColor=#ffffff;rounded=0;align=center;exitX=1;exitY=0.5;exitDx=0;exitDy=0;exitPerimeter=0;entryX=1;entryY=0.5;entryDx=0;entryDy=0;entryPerimeter=0;" parent="2" source="24" target="33" edge="1">
          <mxGeometry relative="1" as="geometry">
            <mxPoint y="-1" as="offset"/>
            <Array as="points">
              <mxPoint x="952" y="1416"/>
              <mxPoint x="952" y="2044.75"/>
            </Array>
          </mxGeometry>
        </mxCell>
      </root>
    </mxGraphModel>
  </diagram>
  <diagram name="Product" id="Product">
    <mxGraphModel style="default-style2">
      <root>
        <mxCell id="0"/>
        <mxCell id="1" parent="0"/>
        <mxCell id="3" value="&lt;font style=&quot;font-size:11px;font-family:Calibri;color:#feffff;direction:ltr;letter-spacing:0px;line-height:120%;opacity:1&quot;&gt;START&lt;br/&gt;&lt;/font&gt;" style="verticalAlign=middle;align=center;vsdxID=1;fillColor=#5b9bd5;gradientColor=none;shape=stencil(nZBLDoAgDERP0z3SIyjew0SURgSD+Lu9kMZoXLhwN9O+tukAlrNpJg1SzDH4QW/URgNYgZTkjA4UkwJUgGXng+6DX1zLfmoymdXo17xh5zmRJ6Q42BWCfc2oJfdAr+Yv+AP9Cb7OJ3H/2JG1HNGz/84klThPVCc=);strokeColor=#c8c8c8;spacingTop=-1;spacingBottom=-1;spacingLeft=-1;spacingRight=-1;labelBackgroundColor=none;rounded=0;html=1;whiteSpace=wrap;" vertex="1" parent="1">
          <mxGeometry x="260" y="180" width="100" height="60" as="geometry"/>
        </mxCell>
        <mxCell id="4" value="&lt;font style=&quot;font-size:11px;font-family:Calibri;color:#feffff;direction:ltr;letter-spacing:0px;line-height:120%;opacity:1&quot;&gt;INITIALIZE WITH NAME,PRICE AND QUANTITY&lt;br/&gt;&lt;/font&gt;" style="verticalAlign=middle;align=center;vsdxID=2;fillColor=#5b9bd5;gradientColor=none;shape=stencil(nZBLDoAgDERP0z3SIyjew0SURgSD+Lu9kMZoXLhwN9O+tukAlrNpJg1SzDH4QW/URgNYgZTkjA4UkwJUgGXng+6DX1zLfmoymdXo17xh5zmRJ6Q42BWCfc2oJfdAr+Yv+AP9Cb7OJ3H/2JG1HNGz/84klThPVCc=);strokeColor=#c8c8c8;spacingTop=-1;spacingBottom=-1;spacingLeft=-1;spacingRight=-1;labelBackgroundColor=none;rounded=0;html=1;whiteSpace=wrap;" vertex="1" parent="1">
          <mxGeometry x="260" y="300" width="100" height="60" as="geometry"/>
        </mxCell>
        <mxCell id="5" value="&lt;font style=&quot;font-size:11px;font-family:Calibri;color:#feffff;direction:ltr;letter-spacing:0px;line-height:120%;opacity:1&quot;&gt;END&lt;br/&gt;&lt;/font&gt;" style="verticalAlign=middle;align=center;vsdxID=4;fillColor=#5b9bd5;gradientColor=none;shape=stencil(nZBLDoAgDERP0z3SIyjew0SURgSD+Lu9kMZoXLhwN9O+tukAlrNpJg1SzDH4QW/URgNYgZTkjA4UkwJUgGXng+6DX1zLfmoymdXo17xh5zmRJ6Q42BWCfc2oJfdAr+Yv+AP9Cb7OJ3H/2JG1HNGz/84klThPVCc=);strokeColor=#c8c8c8;spacingTop=-1;spacingBottom=-1;spacingLeft=-1;spacingRight=-1;labelBackgroundColor=none;rounded=0;html=1;whiteSpace=wrap;" vertex="1" parent="1">
          <mxGeometry x="260" y="420" width="100" height="60" as="geometry"/>
        </mxCell>
        <mxCell id="2" value="Connector" parent="0"/>
        <mxCell id="6" style="vsdxID=5;edgeStyle=none;startArrow=none;endArrow=block;startSize=5;endSize=5;strokeColor=#5b9bd5;spacingTop=0;spacingBottom=0;spacingLeft=0;spacingRight=0;verticalAlign=middle;html=1;labelBackgroundColor=#ffffff;rounded=0;exitX=0.5;exitY=1;exitDx=0;exitDy=0;exitPerimeter=0;entryX=0.5;entryY=0;entryDx=0;entryDy=0;entryPerimeter=0;" edge="1" parent="2" source="4" target="5">
          <mxGeometry relative="1" as="geometry">
            <mxPoint x="10" as="offset"/>
            <Array as="points"/>
          </mxGeometry>
        </mxCell>
        <mxCell id="7" style="vsdxID=3;edgeStyle=none;startArrow=none;endArrow=block;startSize=5;endSize=5;strokeColor=#5b9bd5;spacingTop=0;spacingBottom=0;spacingLeft=0;spacingRight=0;verticalAlign=middle;html=1;labelBackgroundColor=#ffffff;rounded=0;exitX=0.5;exitY=1;exitDx=0;exitDy=0;exitPerimeter=0;entryX=0.5;entryY=0;entryDx=0;entryDy=0;entryPerimeter=0;" edge="1" parent="2" source="3" target="4">
          <mxGeometry relative="1" as="geometry">
            <mxPoint x="10" as="offset"/>
            <Array as="points"/>
          </mxGeometry>
        </mxCell>
      </root>
    </mxGraphModel>
  </diagram>
  <diagram name="Page-5" id="Page-5">
    <mxGraphModel style="default-style2">
      <root>
        <mxCell id="0"/>
        <mxCell id="1" parent="0"/>
        <mxCell id="2" value="Connector" parent="0"/>
      </root>
    </mxGraphModel>
  </diagram>
</mxfile>
